<svg xmlns="http://www.w3.org/2000/svg" width="560.05" height="651" viewBox="0 0 560.05 651"><defs><style>.cls-1{fill:#efefef;}</style></defs><title>Fichier 1</title><g id="Calque_2" data-name="Calque 2"><g id="Calque_1-2" data-name="Calque 1"><path class="cls-1" d="M552.73,353.3a25,25,0,0,0-35.36,0L305,565.64V25a25,25,0,0,0-50,0V565.64L42.68,353.3A25,25,0,0,0,7.32,388.65l255,255,.17.16.72.69c.16.15.33.29.5.43l.42.36.62.49c.12.09.22.18.34.26s.45.33.68.49l.31.21c.23.16.47.31.71.46l.32.19c.23.15.47.28.71.42l.36.19.68.35.42.21.63.29.51.22.56.22.6.22.5.17.68.22.44.13.74.2.42.09.78.17.42.08.77.13.49.06.72.09.64,0,.58,0,1.23,0c.42,0,.83,0,1.24,0l.58,0,.64,0,.72-.09.49-.06.77-.13.42-.08.78-.17.41-.09.75-.2.44-.13.68-.22.5-.17.59-.22.57-.22.51-.22.63-.29.42-.21.68-.35.36-.19c.24-.14.48-.27.71-.42l.31-.19.72-.46.3-.21c.24-.16.47-.32.69-.49l.33-.26.63-.49.42-.36c.17-.14.34-.28.5-.43l.72-.69.17-.16,255-255A25,25,0,0,0,552.73,353.3Z"/></g></g></svg>